<?xml version="1.0" encoding="UTF-8" standalone="no"?>
<!-- Uploaded to: SVG Repo, www.svgrepo.com, Generator: SVG Repo Mixer Tools -->

<svg
   fill="#000000"
   width="800px"
   height="800px"
   viewBox="0 -30.88 122.88 122.88"
   version="1.1"
   id="Layer_1"
   style="enable-background:new 0 0 122.88 61.11"
   xml:space="preserve"
   sodipodi:docname="car.svg"
   inkscape:version="1.1.2 (0a00cf5339, 2022-02-04)"
   xmlns:inkscape="http://www.inkscape.org/namespaces/inkscape"
   xmlns:sodipodi="http://sodipodi.sourceforge.net/DTD/sodipodi-0.dtd"
   xmlns="http://www.w3.org/2000/svg"
   xmlns:svg="http://www.w3.org/2000/svg"><defs
   id="defs11" /><sodipodi:namedview
   id="namedview9"
   pagecolor="#ffffff"
   bordercolor="#000000"
   borderopacity="0.25"
   inkscape:pageshadow="2"
   inkscape:pageopacity="0.0"
   inkscape:pagecheckerboard="0"
   showgrid="false"
   inkscape:zoom="0.7075"
   inkscape:cx="378.09187"
   inkscape:cy="570.31802"
   inkscape:window-width="1858"
   inkscape:window-height="1016"
   inkscape:window-x="0"
   inkscape:window-y="0"
   inkscape:window-maximized="1"
   inkscape:current-layer="g6" />

<style
   type="text/css"
   id="style2">.st0{fill-rule:evenodd;clip-rule:evenodd;}</style>

<g
   id="g6">

<path
   class="st0"
   d="m 57.666536,0 h -26.54 -6.63 c -0.38,0 -0.52,0.34 -0.68,0.68 l -2.66,5.53 c -0.16,0.34 0.31,0.68 0.68,0.68 h 45.12 c 2.95,0.01 -2.09,-6.89 -9.29,-6.89 z m 41.39,45.74 v 3.74 h -3.74 c 0.45,-1.83 1.9,-3.29 3.74,-3.74 z m -3.74,6.19 h 3.74 v 3.74 c -1.84,-0.45 -3.29,-1.9 -3.74,-3.74 z m 6.180004,3.74 v -3.74 h 3.74 c -0.45,1.84 -1.9,3.29 -3.74,3.74 z m 3.75,-6.18 h -3.74 v -3.74 c 1.83,0.45 3.28,1.9 3.74,3.74 z M 32.836536,45.74 v 3.74 h -3.74 c 0.45,-1.83 1.9,-3.29 3.74,-3.74 z m -3.74,6.19 h 3.74 v 3.74 c -1.84,-0.45 -3.29,-1.9 -3.74,-3.74 z m 6.18,3.74 v -3.74 h 3.74 c -0.44,1.84 -1.89,3.29 -3.74,3.74 z m 3.75,-6.18 h -3.74 v -3.74 c 1.84,0.45 3.29,1.9 3.74,3.74 z m -5.8,-36.72 h -3.52 c -5.085204,0 -7.17,0.05 -9.19,1.59 -2.5,1.91 -3.48,10.35 -4.52,14.25 -0.07,0.26 0.23,0.5 0.5,0.5 h 15.51 c 0.27,0 0.47,-0.22 0.5,-0.5 l 1.22,-15.35 c 0.02,-0.26 -0.23,-0.49 -0.5,-0.49 z m 23.57,0.09 h 11.5 c 5.25,0 13.89,8.63 16.15,15.61 0.11,0.34 -0.29,0.65 -0.65,0.65 h -25.18 c -0.36,0 -0.6,-0.29 -0.65,-0.65 l -1.83,-14.96 c -0.03,-0.36 0.31,-0.65 0.66,-0.65 z m -4.98,-0.06 h -14.07 c -0.27,0 -0.48,0.23 -0.5,0.5 l -1.07,15.32 c -0.02,0.27 0.23,0.5 0.5,0.5 h 16.97 c 0.27,0 0.53,-0.23 0.5,-0.5 l -1.83,-15.32 c -0.03,-0.28 -0.22,-0.5 -0.5,-0.5 z m 48.460004,27.51 c -5.740004,0 -10.400004,4.66 -10.400004,10.4 0,5.74 4.66,10.4 10.400004,10.4 5.74,0 10.4,-4.66 10.4,-10.4 0,-5.74 -4.66,-10.4 -10.4,-10.4 z m 20.8,0.47 c -0.53,-0.24 -1.11,-0.35 -1.74,-0.34 0.03,-3.28 -0.19,-6.14 -0.95,-8.17 -0.28,-1.17 -0.79,-2.02 -1.47,-2.64 -2.14,-1.91 -21.250004,-3.59 -25.280004,-4.11 -4.95,-4.84 -10.46,-9.27 -16.33,-13.46 -1.63,-1.38 -3.96,-2.06 -6.9,-2.13 l -46.41,-0.04 c -3.51,-0.02 -6.21,1.48 -7.93,4.85 l -3.87,11.15 -0.8800002,-0.24 v -4.34 c 0.16,-1.45 -0.41,-2.17 -1.52,-2.35 h -5.2 c -1.43,0.06 -2.43999998,0.78 -2.59999998,2.85 v 15.42 c -0.01,1.59 0.57,2.63 2.03999998,2.85 h 4.83 c 0.48,0.11 0.33,0.48 0.37,0.99 v 5.26 c 0.35,3.88 1.41,6.88 4.5200002,7.27 h 9.41 c -0.2,-4.56 0.66,-8.29 2.75,-11.08 7.59,-10.14 24.06,-4.1 22.95,11.11 h 40.44 c -0.34,-4.86 0.58,-8.55 2.59,-11.2 7.57,-9.99 25.180004,-4.6 23.100004,11.51 h 6.25 c 3.77,0 5,-11.75 1.83,-13.16 z M 34.056536,40.31 c -5.74,0 -10.4,4.66 -10.4,10.4 0,5.74 4.66,10.4 10.4,10.4 5.74,0 10.4,-4.66 10.4,-10.4 0,-5.74 -4.65,-10.4 -10.4,-10.4 z"
   id="path4"
   style="fill:#000000;fill-opacity:0;stroke:#000000;stroke-width:2.7648;stroke-miterlimit:4;stroke-dasharray:none;stroke-opacity:0.899805"
   sodipodi:nodetypes="scsccscsccccccccccccccccccccccccccccccccssccssccssscssccsssccssccsssssscccccccccccccccccccccccccccscsssss" />

</g>

</svg>
