<?xml version="1.0" encoding="UTF-8" standalone="no"?>
<!-- Uploaded to: SVG Repo, www.svgrepo.com, Generator: SVG Repo Mixer Tools -->

<svg
   width="800px"
   height="800px"
   viewBox="0 0 24 24"
   fill="none"
   version="1.1"
   id="svg14"
   sodipodi:docname="house.svg"
   inkscape:version="1.1.2 (0a00cf5339, 2022-02-04)"
   xmlns:inkscape="http://www.inkscape.org/namespaces/inkscape"
   xmlns:sodipodi="http://sodipodi.sourceforge.net/DTD/sodipodi-0.dtd"
   xmlns="http://www.w3.org/2000/svg"
   xmlns:svg="http://www.w3.org/2000/svg">
  <defs
     id="defs18" />
  <sodipodi:namedview
     id="namedview16"
     pagecolor="#ffffff"
     bordercolor="#000000"
     borderopacity="0.25"
     inkscape:pageshadow="2"
     inkscape:pageopacity="0.0"
     inkscape:pagecheckerboard="0"
     showgrid="false"
     inkscape:zoom="0.7075"
     inkscape:cx="400.70671"
     inkscape:cy="399.29329"
     inkscape:window-width="1858"
     inkscape:window-height="1016"
     inkscape:window-x="0"
     inkscape:window-y="0"
     inkscape:window-maximized="1"
     inkscape:current-layer="svg14" />
  <path
     d="M 2,22 H 16.975375 22"
     stroke="#292D32"
     stroke-width="1.5"
     stroke-miterlimit="10"
     stroke-linecap="round"
     stroke-linejoin="round"
     id="path2"
     style="stroke:#000000;stroke-opacity:1;stroke-width:0.9;stroke-miterlimit:10;stroke-dasharray:none"
     sodipodi:nodetypes="ccc" />
  <path
     d="M2.94995 22L2.99995 9.96999C2.99995 9.35999 3.28995 8.78004 3.76995 8.40004L10.77 2.95003C11.49 2.39003 12.4999 2.39003 13.2299 2.95003L20.23 8.39003C20.72 8.77003 21 9.34999 21 9.96999V22"
     stroke="#292D32"
     stroke-width="1.5"
     stroke-miterlimit="10"
     stroke-linejoin="round"
     id="path4"
     style="stroke:#000000;stroke-opacity:1;stroke-width:0.9;stroke-miterlimit:10;stroke-dasharray:none" />
  <path
     d="M13 17H11C10.17 17 9.5 17.67 9.5 18.5V22H14.5V18.5C14.5 17.67 13.83 17 13 17Z"
     stroke="#292D32"
     stroke-width="1.5"
     stroke-miterlimit="10"
     stroke-linejoin="round"
     id="path6"
     style="stroke:#000000;stroke-opacity:1;stroke-width:0.9;stroke-miterlimit:10;stroke-dasharray:none" />
  <path
     d="M9.5 13.75H7.5C6.95 13.75 6.5 13.3 6.5 12.75V11.25C6.5 10.7 6.95 10.25 7.5 10.25H9.5C10.05 10.25 10.5 10.7 10.5 11.25V12.75C10.5 13.3 10.05 13.75 9.5 13.75Z"
     stroke="#292D32"
     stroke-width="1.5"
     stroke-miterlimit="10"
     stroke-linejoin="round"
     id="path8"
     style="stroke:#000000;stroke-opacity:1;stroke-width:0.9;stroke-miterlimit:10;stroke-dasharray:none" />
  <path
     d="M16.5 13.75H14.5C13.95 13.75 13.5 13.3 13.5 12.75V11.25C13.5 10.7 13.95 10.25 14.5 10.25H16.5C17.05 10.25 17.5 10.7 17.5 11.25V12.75C17.5 13.3 17.05 13.75 16.5 13.75Z"
     stroke="#292D32"
     stroke-width="1.5"
     stroke-miterlimit="10"
     stroke-linejoin="round"
     id="path10"
     style="stroke:#000000;stroke-opacity:1;stroke-width:0.9;stroke-miterlimit:10;stroke-dasharray:none" />
  <path
     d="M19.0001 7L18.9701 4H14.5701"
     stroke="#292D32"
     stroke-width="1.5"
     stroke-miterlimit="10"
     stroke-linecap="round"
     stroke-linejoin="round"
     id="path12"
     style="stroke:#000000;stroke-opacity:1;stroke-width:0.9;stroke-miterlimit:10;stroke-dasharray:none" />
</svg>
