<?xml version="1.0" encoding="UTF-8" standalone="no"?>
<!-- Uploaded to: SVG Repo, www.svgrepo.com, Generator: SVG Repo Mixer Tools -->

<svg
   width="800px"
   height="800px"
   viewBox="0 0 24 24"
   fill="none"
   version="1.1"
   id="svg10"
   sodipodi:docname="washing-machine.svg"
   inkscape:version="1.1.2 (0a00cf5339, 2022-02-04)"
   xmlns:inkscape="http://www.inkscape.org/namespaces/inkscape"
   xmlns:sodipodi="http://sodipodi.sourceforge.net/DTD/sodipodi-0.dtd"
   xmlns="http://www.w3.org/2000/svg"
   xmlns:svg="http://www.w3.org/2000/svg">
  <defs
     id="defs14" />
  <sodipodi:namedview
     id="namedview12"
     pagecolor="#ffffff"
     bordercolor="#000000"
     borderopacity="0.25"
     inkscape:pageshadow="2"
     inkscape:pageopacity="0.0"
     inkscape:pagecheckerboard="0"
     showgrid="false"
     inkscape:zoom="0.7075"
     inkscape:cx="400.70671"
     inkscape:cy="399.29329"
     inkscape:window-width="1858"
     inkscape:window-height="1016"
     inkscape:window-x="0"
     inkscape:window-y="0"
     inkscape:window-maximized="1"
     inkscape:current-layer="svg10" />
  <path
     d="M21 14C21 17.7712 21 19.6569 19.8284 20.8284C18.6569 22 16.7712 22 13 22H11C7.22876 22 5.34315 22 4.17157 20.8284C3 19.6569 3 17.7712 3 14V10C3 6.22876 3 4.34315 4.17157 3.17157C5.34315 2 7.22876 2 11 2H13C16.7712 2 18.6569 2 19.8284 3.17157C21 4.34315 21 6.22876 21 10"
     stroke="#1C274C"
     stroke-width="1.5"
     stroke-linecap="round"
     id="path2"
     style="fill:#000000;fill-opacity:0;opacity:1;stroke:#000000;stroke-opacity:1;stroke-width:1.2;stroke-miterlimit:4;stroke-dasharray:none" />
  <path
     d="M17 14C17 16.7614 14.7614 19 12 19C9.23858 19 7 16.7614 7 14C7 11.2386 9.23858 9 12 9C14.7614 9 17 11.2386 17 14Z"
     stroke="#1C274C"
     stroke-width="1.5"
     id="path4"
     style="stroke:#000000;stroke-opacity:1;stroke-width:1.2;stroke-miterlimit:4;stroke-dasharray:none" />
  <path
     d="M16 6H12M9 6H8"
     stroke="#1C274C"
     stroke-width="1.5"
     stroke-linecap="round"
     id="path6"
     style="stroke:#000000;stroke-opacity:1;stroke-width:1.2;stroke-miterlimit:4;stroke-dasharray:none" />
  <path
     d="M7.23418 14.3624C8.08868 14.7895 9.06745 15.5209 10.724 15.8195C13.0859 16.2453 12.8501 14.1706 15.2121 14.5961C15.9323 14.7258 16.4181 14.9452 16.7616 15.1805"
     stroke="#1C274C"
     stroke-width="1.5"
     stroke-linecap="round"
     id="path8"
     style="stroke:#000000;stroke-opacity:1;stroke-width:1.2;stroke-miterlimit:4;stroke-dasharray:none" />
</svg>
